<svg height="512pt" viewBox="0 0 512 512.00063" width="512pt" xmlns="http://www.w3.org/2000/svg"><path d="m507.546875 68.09375-42.429687 42.425781c-5.9375 5.941407-15.269532 5.941407-21.210938 0l-42.425781-42.425781c-5.941407-5.9375-5.941407-15.273438 0-21.210938l42.425781-42.425781c5.941406-5.941406 15.273438-5.941406 21.210938 0l42.429687 42.425781c5.9375 5.9375 5.9375 15.273438 0 21.210938zm0 0" fill="#c5d3dd"/><path d="m443.90625 110.519531-21.214844-21.210937 63.640625-63.640625 21.214844 21.214843c5.9375 5.9375 5.9375 15.269532 0 21.210938l-42.429687 42.425781c-5.9375 5.941407-15.273438 5.941407-21.210938 0zm0 0" fill="#9facba"/><path d="m151.585938 339.199219-23.332032 23.332031c2.96875 4.242188 5.300782 9.125 7 14.214844 10.820313 26.515625 5.304688 58.335937-16.546875 80.1875l-50.613281 50.613281c-5.9375 5.9375-15.273438 5.9375-21.210938 0l-42.429687-42.429687c-5.9375-5.9375-5.9375-15.273438 0-21.210938l41.070313-41.066406c-19.304688-29.0625-16.121094-68.734375 9.542968-94.398438l42.425782-42.425781c25.667968-25.667969 65.339843-28.851563 94.402343-9.546875l39.878907-39.878906c5.941406-5.941406 15.273437-5.941406 21.210937 0l42.425781 42.425781c5.941406 5.9375 5.941406 15.269531 0 21.210937l-49.425781 49.425782c-21.847656 21.851562-53.667969 27.367187-80.394531 16.757812-4.878906-1.90625-9.761719-4.242187-14.003906-7.210937zm0 0" fill="#c5d3dd"/><path d="m295.414062 280.226562-49.425781 49.425782c-21.851562 21.851562-53.671875 27.367187-80.398437 16.757812l108.609375-108.609375 21.214843 21.210938c5.9375 5.941406 5.9375 15.273437 0 21.214843zm0 0" fill="#9facba"/><path d="m118.707031 456.933594-50.613281 50.613281c-5.9375 5.9375-15.273438 5.9375-21.210938 0l-21.214843-21.214844 109.585937-109.585937c10.820313 26.515625 5.304688 58.335937-16.546875 80.1875zm0 0" fill="#9facba"/><path d="m507.546875 152.949219-53.035156 53.03125h-42.425781l-106.066407-106.066407v-42.425781l53.03125-53.035156c5.941407-5.9375 15.273438-5.9375 21.214844 0l127.277344 127.28125c5.941406 5.941406 5.941406 15.273437.003906 21.214844zm0 0" fill="#e0f4ff"/><path d="m390.871094 269.621094-53.03125 53.03125c-5.941406 5.941406-15.273438 5.941406-21.214844 0l-127.277344-127.277344c-5.941406-5.941406-5.941406-15.273438 0-21.214844l53.03125-53.03125h42.425782l106.066406 106.066406zm0 0" fill="#e0f4ff"/><g fill="#c5d3dd"><path d="m507.546875 152.949219-53.035156 53.03125h-42.425781l-53.03125-53.03125 84.851562-84.855469 63.640625 63.640625c5.9375 5.941406 5.9375 15.273437 0 21.214844zm0 0"/><path d="m390.871094 227.195312v42.425782l-53.03125 53.03125c-5.941406 5.941406-15.273438 5.941406-21.214844 0l-63.640625-63.640625 84.855469-84.851563zm0 0"/><path d="m242.378906 121.128906 63.636719-63.640625 148.492187 148.492188-63.640624 63.640625zm0 0"/></g><path d="m316.621094 195.375 63.640625-63.640625 74.246093 74.246094-63.640624 63.640625zm0 0" fill="#9facba"/></svg>